<?xml version="1.0" encoding="utf-8"?>
<!-- Generator: Adobe Illustrator 25.1.0, SVG Export Plug-In . SVG Version: 6.00 Build 0)  -->
<svg version="1.2" baseProfile="tiny" id="Capa_1" xmlns="http://www.w3.org/2000/svg" xmlns:xlink="http://www.w3.org/1999/xlink"
	 x="0px" y="0px" viewBox="0 0 617 516" overflow="visible" xml:space="preserve">
<g transform="translate(0.000000,516.000000) scale(0.100000,-0.100000)">
	<path d="M3100,4799c-47-19-514-202-1095-429c-115-45-293-115-395-155s-236-92-297-116c-62-23-113-45-113-48c0-4,73-39,163-80
		c89-41,266-123,392-181c127-59,397-184,600-278c204-94,408-188,455-210c251-117,336-155,345-155c6,0,64,25,130,55
		c66,31,156,73,200,93s256,118,470,217c215,99,494,228,620,287c127,59,299,138,382,176c84,39,153,73,153,76s-89,40-197,82
		c-109,42-297,115-418,162c-121,48-281,111-355,139c-74,29-247,97-385,151c-549,215-600,235-605,234C3147,4819,3125,4810,3100,4799z
		"/>
	<path d="M1120,2637V1364l197-104c109-58,247-131,308-163c60-32,146-78,190-102c184-99,949-507,1060-565c66-35,139-74,163-87l42-25
		l-2,1348l-3,1348l-135,61c-143,66-1157,535-1250,578c-239,112-556,257-562,257C1123,3910,1120,3337,1120,2637z M1460,2643l240-116
		l-1-121v-121l-18,70c-36,143-86,207-211,270l-70,35v-155v-154l33-9c19-5,41-5,53,1c24,10,54,66,54,102c0,13,5,27,10,30
		c7,4,10-67,10-206c0-117-2-210-5-208c-2,3-11,38-20,77c-22,107-52,160-107,188l-28,15v-146v-146l75-36c60-28,83-34,113-30
		c47,8,88,52,104,112c7,25,16,45,20,45s8-58,8-130c0-71-2-130-5-130c-11,0-505,250-505,256c0,3,13,3,29-1c23-5,32-2,45,17
		c14,19,16,58,16,256c0,259-4,280-61,325c-19,15-31,27-27,27S1328,2708,1460,2643z M2053,2370c52-26,70-40,131-112
		c27-32,52-58,55-58c4,0,17,9,30,21c12,12,25,19,27,16c3-3,7-77,9-164s2-147-1-133c-12,60-59,189-86,240c-64,115-133,180-195,180
		c-70,0-97-76-97-270c0-186,33-292,110-360c101-88,204-78,254,25c12,25,25,44,27,41c10-10-42-100-69-120c-38-27-111-25-169,4
		c-24,13-71,51-105,85c-194,201-228,519-64,606C1955,2395,2000,2395,2053,2370z M2705,2052c31-17,69-51,101-92c29-35,58-66,64-68
		s22,6,36,19c13,12,26,20,29,18c2-3,7-79,10-170l5-164l-19,68c-56,199-149,345-248,386c-51,21-81,8-106-47c-20-43-22-63-22-227
		c1-165,2-185,24-239c13-32,40-77,60-99c41-45,120-87,167-87c44,0,96,38,119,87c11,23,23,42,28,43c16,0-25-77-58-107
		c-30-29-42-33-87-33c-74,1-126,28-205,107c-113,113-177,259-177,403c0,94,17,141,72,193C2554,2096,2617,2099,2705,2052z"/>
	<path d="M4959,3812c-113-54-245-116-295-138c-49-23-330-153-624-289s-596-276-670-310l-135-62l-3-1347c-1-740,0-1346,4-1346
		c6,0,1896,1004,1932,1026l22,14v1275c0,1014-3,1275-12,1274C5171,3908,5072,3865,4959,3812z M5028,3564c37-25,52-67,52-143
		c0-88-29-168-84-227c-37-40-114-79-784-399c-409-195-755-355-769-355c-106,0-146,156-79,307c53,116,36,107,851,487
		c407,190,751,346,765,346S5016,3573,5028,3564z M5029,2715c34-17,61-78,61-138c0-91-59-224-119-266c-14-10-357-185-762-390
		c-510-257-746-371-768-371c-142,0-147,272-8,408c45,44,89,66,847,437c239,117,491,240,559,274s132,61,143,61
		C4992,2730,5014,2723,5029,2715z M5072,1820c16-29,19-50,16-116c-5-95-38-174-97-232c-54-53-1503-814-1553-815
		c-94-3-135,122-87,265c21,64,60,128,100,165c26,23,1449,759,1508,779C5007,1882,5047,1866,5072,1820z"/>
</g>
</svg>
